<?xml version="1.0" encoding="UTF-8" standalone="no"?>
<!DOCTYPE svg PUBLIC "-//W3C//DTD SVG 1.1//EN" "http://www.w3.org/Graphics/SVG/1.1/DTD/svg11.dtd">
<svg width="100%" height="100%" viewBox="0 0 393 189" version="1.1" xmlns="http://www.w3.org/2000/svg" xmlns:xlink="http://www.w3.org/1999/xlink" xml:space="preserve" xmlns:serif="http://www.serif.com/" style="fill-rule:evenodd;clip-rule:evenodd;stroke-linejoin:round;stroke-miterlimit:2;">
    <g transform="matrix(1,0,0,1,-60.1888,-25.499)">
        <g transform="matrix(4.16667,0,0,4.16667,399.586,79.961)">
            <path d="M0,-9.94C-2.096,-8.966 -2.239,-6.072 -1.646,-4.102C-1.004,-1.962 0.64,-0.508 2.783,0.02C3.047,0.085 2.695,-0.487 2.498,-0.536C0.031,-1.144 -1.371,-3.159 -1.398,-5.64C-1.415,-7.114 -1.067,-8.705 0.388,-9.381C0.617,-9.488 0.185,-10.025 0,-9.94" style="fill:rgb(47,47,46);fill-rule:nonzero;"/>
        </g>
        <g transform="matrix(4.16667,0,0,4.16667,405.437,34.1319)">
            <path d="M0,5.286C1.341,3.778 4.537,3.64 6.396,3.402C8.008,3.195 9.632,3.046 11.255,2.968C11.423,2.96 11.483,2.837 11.453,2.678C11.133,0.985 7.442,0.027 6.121,-0.258C3.71,-0.779 0.476,-0.252 -1.587,1.072C-1.639,1.105 -1.674,1.193 -1.667,1.253C-1.375,3.697 -1.38,6.065 1.404,5.622C3.246,5.328 5.06,4.717 6.842,4.181C8.21,3.769 9.811,3.002 11.255,2.968C11.645,2.959 11.409,2.327 11.108,2.334C8.317,2.4 5.29,4.022 2.585,4.678C2.021,4.815 0.924,5.259 0.348,5.093C-0.347,4.894 -0.445,4.531 -0.692,3.701C-0.777,3.415 -1.153,2.185 -1.055,1.851C-0.662,0.538 2.742,0.327 3.961,0.237C5.27,0.14 6.403,0.344 7.652,0.785C7.844,0.852 11.085,2.309 11.078,2.335C11.048,2.453 8.248,2.541 8.09,2.556C5.623,2.791 1.304,2.786 -0.49,4.805C-0.69,5.03 -0.235,5.552 0,5.286" style="fill:rgb(47,47,46);fill-rule:nonzero;"/>
        </g>
        <g transform="matrix(4.16667,0,0,4.16667,435.536,46.1948)">
            <path d="M0,-2.549C-0.446,-2.32 -0.869,-2.024 -1.04,-1.529C-1.259,-0.893 -0.909,-0.342 -0.42,0.053C-0.32,0.134 0.041,-0.161 0.025,-0.174C-0.735,-0.788 -0.992,-1.914 0.05,-2.45C0.303,-2.581 0.26,-2.683 0,-2.549" style="fill:rgb(47,47,46);fill-rule:nonzero;"/>
        </g>
        <g transform="matrix(0.57828,4.12634,4.12634,-0.57828,398.673,50.9767)">
            <path d="M1.144,-1.849C2.37,-1.178 1.993,0.306 1.363,1.258C1.141,1.593 0.981,1.216 1.144,0.968C1.635,0.226 1.782,-0.817 0.872,-1.313C0.668,-1.425 0.94,-1.96 1.144,-1.849" style="fill:rgb(47,47,46);fill-rule:nonzero;"/>
        </g>
        <g transform="matrix(4.16667,0,0,4.16667,60.8024,142.619)">
            <path d="M0,-8.33L1.559,-8.33L1.559,-4.798L5.601,-4.798L5.601,-8.33L7.172,-8.33L7.172,0L5.601,0L5.601,-3.544L1.559,-3.544L1.559,0L0,0L0,-8.33Z" style="fill:rgb(47,47,46);fill-rule:nonzero;"/>
        </g>
        <g transform="matrix(4.16667,0,0,4.16667,113.044,113.047)">
            <path d="M0,5.866C1.421,5.866 2.417,4.837 2.411,2.932C2.417,1.028 1.421,-0.001 0,-0.001C-1.415,-0.001 -2.417,1.028 -2.41,2.932C-2.417,4.837 -1.415,5.866 0,5.866M0,7.213C-2.284,7.213 -3.987,5.619 -3.981,2.932C-3.987,0.24 -2.284,-1.347 0,-1.347C2.272,-1.347 3.988,0.24 3.982,2.932C3.988,5.625 2.272,7.213 0,7.213" style="fill:rgb(47,47,46);fill-rule:nonzero;"/>
        </g>
        <g transform="matrix(4.16667,0,0,4.16667,165.136,107.911)">
            <path d="M0,8.33L-1.391,8.33L-5.505,2.635L-5.577,2.635L-5.577,8.33L-7.136,8.33L-7.136,0L-5.721,0L-1.631,5.695L-1.547,5.695L-1.547,0L0,0L0,8.33Z" style="fill:rgb(47,47,46);fill-rule:nonzero;"/>
        </g>
        <g transform="matrix(4.16667,0,0,4.16667,171.805,142.619)">
            <path d="M0,-8.33L5.648,-8.33L5.648,-7.075L1.559,-7.075L1.559,-4.798L5.349,-4.798L5.349,-3.544L1.559,-3.544L1.559,-1.266L5.673,-1.266L5.673,0L0,0L0,-8.33Z" style="fill:rgb(47,47,46);fill-rule:nonzero;"/>
        </g>
        <g transform="matrix(4.16667,0,0,4.16667,214.408,137.832)">
            <path d="M0,-6.019C-0.989,-6.025 -1.577,-5.564 -1.583,-4.937C-1.589,-4.236 -0.815,-3.948 -0.096,-3.787L0.72,-3.58C2.015,-3.292 3.263,-2.636 3.263,-1.187C3.263,0.275 2.057,1.276 -0.023,1.276C-2.045,1.276 -3.328,0.343 -3.394,-1.301L-1.858,-1.301C-1.787,-0.433 -1.025,-0.007 -0.036,-0.001C0.989,-0.007 1.697,-0.485 1.703,-1.198C1.697,-1.854 1.073,-2.13 0.132,-2.36L-0.852,-2.602C-2.278,-2.958 -3.166,-3.649 -3.166,-4.845C-3.166,-6.318 -1.805,-7.295 0.024,-7.295C1.865,-7.295 3.118,-6.3 3.143,-4.891L1.644,-4.891C1.565,-5.61 0.936,-6.025 0,-6.019" style="fill:rgb(47,47,46);fill-rule:nonzero;"/>
        </g>
        <g transform="matrix(4.16667,0,0,4.16667,231.774,142.619)">
            <path d="M0,-8.33L6.92,-8.33L6.92,-7.075L4.245,-7.075L4.245,0L2.687,0L2.687,-7.075L0,-7.075L0,-8.33Z" style="fill:rgb(47,47,46);fill-rule:nonzero;"/>
        </g>
        <g transform="matrix(4.16667,0,0,4.16667,270.529,142.619)">
            <path d="M0,-8.33L2.135,-4.648L2.219,-4.648L4.354,-8.33L6.117,-8.33L2.963,-3.118L2.963,0L1.403,0L1.403,-3.118L-1.763,-8.33L0,-8.33Z" style="fill:rgb(47,47,46);fill-rule:nonzero;"/>
        </g>
        <g transform="matrix(4.16667,0,0,4.16667,427.121,137.201)">
            <path d="M0,-5.729L-1.355,-5.729L-1.355,0L-0.048,0C1.77,0.006 2.687,-0.955 2.687,-2.876C2.687,-4.786 1.77,-5.735 0,-5.729" style="fill:rgb(47,47,46);fill-rule:nonzero;"/>
        </g>
        <g transform="matrix(4.16667,0,0,4.16667,427.272,110.019)">
            <path d="M0,7.824L-2.95,7.824L-2.95,-0.506L0.048,-0.506C2.639,-0.506 4.204,1.053 4.21,3.647C4.204,6.254 2.639,7.824 0,7.824M-4.192,7.824L-9.589,7.824L-9.589,-0.506L-8.03,-0.506L-8.03,6.558L-4.192,6.558L-4.192,7.824ZM-11.206,7.824L-12.765,7.824L-12.765,-0.506L-11.206,-0.506L-11.206,7.824ZM-16.197,7.824L-17.745,7.824L-19.483,1.968L-19.544,1.968L-21.295,7.824L-22.842,7.824L-25.289,-0.506L-23.609,-0.506L-22.038,5.627L-21.954,5.627L-20.287,-0.506L-18.752,-0.506L-17.073,5.638L-17.001,5.638L-15.43,-0.506L-13.751,-0.506L-16.197,7.824ZM-27.196,11.22L6.087,11.22L6.087,-3.396L-27.196,-3.396L-27.196,11.22Z" style="fill:rgb(47,47,46);fill-rule:nonzero;"/>
        </g>
        <g transform="matrix(1,0,0,1,-87.0872,-400.21)">
            <path d="M442.674,496.079L446.556,496.079C452.062,488.47 460.321,483.503 466.51,476.494C471.127,471.269 472.673,465.856 473.431,459.094C474.514,449.398 475.843,441.231 487.506,441.465C488.556,441.49 486.902,438.544 485.727,438.519C475.123,438.306 472.302,444.581 471.177,454.09C470.352,461.119 469.889,466.952 465.218,472.706C461.006,477.898 455.385,481.802 450.577,486.381C447.486,489.323 444.885,492.58 442.674,496.079ZM497.961,496.079L500.711,496.079C500.986,492.398 500.236,488.674 498.097,485.015C497.277,483.61 495.048,483.202 496.26,485.273C498.221,488.629 498.639,492.313 497.961,496.079Z" style="fill:rgb(47,47,46);fill-rule:nonzero;"/>
        </g>
        <g transform="matrix(1,0,0,1,-87.0872,-400.21)">
            <path d="M478.219,496.079L480.638,496.079C481.569,493.04 482.109,489.978 482.12,486.925C482.174,472.409 459.333,479.892 452.316,485.8C450.924,486.975 453.378,485.838 453.841,485.446C457.762,482.142 473.391,477.375 478.112,481.992C481.251,485.064 479.852,491.354 478.219,496.079Z" style="fill:rgb(47,47,46);fill-rule:nonzero;"/>
        </g>
        <g transform="matrix(1,0,0,1,-87.0872,-400.21)">
            <path d="M491.379,496.079L494.485,496.079C496.623,491.545 498.438,486.787 499.027,481.807C500.04,473.198 495.073,465.361 498.406,456.898C498.66,456.253 495.385,456.578 495.027,457.482C492.402,464.144 494.948,469.594 495.71,476.303C496.488,483.14 494.244,489.873 491.379,496.079Z" style="fill:rgb(47,47,46);fill-rule:nonzero;"/>
        </g>
    </g>
</svg>
